<svg width="97" height="20" viewBox="0 0 97 20" fill="none" xmlns="http://www.w3.org/2000/svg">
<path d="M6.77015 19.8272C4.90211 19.8272 3.18948 19.1326 1.94734 17.8711C0.691268 16.5968 0 14.8219 0 12.8723C0 8.92058 2.8476 6.05353 6.77015 6.05353C8.7207 6.05353 10.2597 6.66552 11.3529 7.87236V0.269049H14.3387V19.5571H11.3529V18.0083C10.2597 19.2152 8.71963 19.8272 6.77015 19.8272ZM7.10131 8.71694C4.7167 8.71694 2.98692 10.465 2.98692 12.8723C2.98692 15.2795 4.75636 17.1627 7.10131 17.1627C9.44627 17.1627 11.34 15.2785 11.34 12.8723C11.34 10.4661 9.51807 8.71694 7.10131 8.71694Z" fill="white" style="fill:white;fill-opacity:1;"/>
<path d="M22.5814 19.8271C20.7134 19.8271 19.0007 19.1326 17.7586 17.8711C16.5025 16.5967 15.8112 14.8219 15.8112 12.8723C15.8112 8.92055 18.6588 6.0535 22.5814 6.0535C24.5319 6.0535 26.071 6.66549 27.1641 7.87234V6.32359H30.15V19.556H27.1641V18.0072C26.071 19.2141 24.5309 19.8261 22.5814 19.8261V19.8271ZM22.9126 8.71691C20.528 8.71691 18.7982 10.465 18.7982 12.8723C18.7982 15.2795 20.5676 17.1627 22.9126 17.1627C25.2575 17.1627 27.1513 15.2784 27.1513 12.8723C27.1513 10.4661 25.3293 8.71691 22.9126 8.71691Z" fill="white" style="fill:white;fill-opacity:1;"/>
<path d="M38.6145 19.8272C37.2127 19.8272 36.0445 19.4381 35.2364 18.7007C34.4144 17.9515 33.9804 16.8572 33.9804 15.5357V8.85305H31.6247V6.32468H34.0222V2.16183H36.9394V6.32468H40.8663V8.85305H36.9673V15.2109C36.9673 16.4789 37.6703 17.1498 39.0014 17.1498C39.6402 17.1498 40.489 17.0266 41.1149 16.8444L41.2564 16.8036L41.6529 19.3491L41.5565 19.3866C40.877 19.6503 39.6949 19.8282 38.6167 19.8282L38.6145 19.8272Z" fill="white" style="fill:white;fill-opacity:1;"/>
<path d="M48.6804 19.8271C46.8124 19.8271 45.0997 19.1326 43.8576 17.8711C42.6015 16.5967 41.9102 14.8219 41.9102 12.8723C41.9102 8.92055 44.7578 6.0535 48.6804 6.0535C50.6309 6.0535 52.17 6.66442 53.2631 7.87234V6.32359H56.249V19.556H53.2631V18.0072C52.17 19.2141 50.6299 19.8261 48.6804 19.8261V19.8271ZM49.0116 8.71691C46.6269 8.71691 44.8972 10.465 44.8972 12.8723C44.8972 15.2795 46.6666 17.1627 49.0116 17.1627C51.3565 17.1627 53.2503 15.2784 53.2503 12.8723C53.2503 10.4661 51.4283 8.71691 49.0116 8.71691Z" fill="white" style="fill:white;fill-opacity:1;"/>
<path d="M66.5836 0.269049H63.5978V19.5571H66.5836V0.269049Z" fill="white" style="fill:white;fill-opacity:1;"/>
<path d="M69.531 19.557V6.32464H72.5168V19.557H69.531ZM71.0239 3.8788C69.9586 3.8788 69.2137 3.14784 69.2137 2.1007C69.2137 1.05355 69.9586 0.322588 71.0239 0.322588C72.0892 0.322588 72.848 1.05355 72.848 2.1007C72.848 3.14784 72.0978 3.8788 71.0239 3.8788Z" fill="white" style="fill:white;fill-opacity:1;"/>
<path d="M76.5656 19.557V8.85303H74.0717V6.32466H76.6074V5.04815C76.6074 1.93352 78.6212 0 81.8621 0C83.0785 0 83.892 0.372985 84.1128 0.487667L84.1931 0.529467L83.8695 3.00531L83.7119 2.93672C83.3508 2.77916 82.6563 2.60982 81.9864 2.60982C80.2749 2.60982 79.5118 3.40831 79.5118 5.19713V6.32466H83.4108V8.85303H79.5525V19.557H76.5667H76.5656Z" fill="white" style="fill:white;fill-opacity:1;"/>
<path d="M91.1691 19.8271C88.9528 19.8271 87.0451 19.1658 85.6529 17.9151C84.2564 16.6611 83.518 14.9397 83.518 12.9398C83.518 10.9398 84.2136 9.28175 85.4761 8.02024C86.7461 6.75124 88.5134 6.0535 90.4532 6.0535C92.5238 6.0535 94.3318 6.85627 95.5429 8.31284C96.7904 9.81443 97.2587 11.8112 96.8632 13.9366L96.844 14.0416H86.6089C87.1233 16.004 88.7374 17.0812 91.1702 17.0812C92.6085 17.0812 93.8913 16.7436 95.7454 15.8765L95.8987 15.8047L96.3552 18.4949L96.2759 18.5388C94.7208 19.4048 93.0511 19.8261 91.1702 19.8261L91.1691 19.8271ZM94.125 11.6493C93.8913 9.86159 92.5292 8.75871 90.5357 8.75871C88.5423 8.75871 86.9368 9.9141 86.6732 11.6493H94.125Z" fill="white" style="fill:white;fill-opacity:1;"/>
</svg>
