<svg width="21" height="34" viewBox="0 0 21 34" fill="none" xmlns="http://www.w3.org/2000/svg">
<path d="M20.1948 0.548897L17.1552 2.56963L15.586 3.61321L14.5273 4.31714L14.1592 4.56191C14.0586 4.62832 13.977 4.71939 13.9201 4.82185C13.9087 4.84083 13.9011 4.8598 13.8917 4.88067C13.8499 4.97364 13.8271 5.0761 13.8271 5.18236V11.9808L7.53724 9.36044C7.44047 9.3206 7.33802 9.30352 7.23556 9.30542C7.21469 9.30542 7.19191 9.30542 7.17104 9.30921C7.0553 9.32249 6.94146 9.36234 6.8409 9.42875L5.6664 10.2086L3.843 11.421L2.94742 12.0168L2.27764 12.4627L0.847001 13.4133C0.746438 13.4797 0.664848 13.5708 0.607926 13.6732C0.596541 13.6922 0.588947 13.7112 0.57946 13.7321C0.537717 13.825 0.514955 13.9275 0.514955 14.0337V20.8322V27.5338C0.514955 27.6837 0.560487 27.826 0.640178 27.9455C0.719869 28.0651 0.833714 28.1618 0.972224 28.2187L2.1581 28.7121L7.17104 30.7992L9.95074 31.9566L11.5465 32.6207L13.4609 33.4176C13.5577 33.4575 13.6602 33.4765 13.7626 33.4727C13.7835 33.4727 13.8063 33.4727 13.8271 33.4689C13.9429 33.4556 14.0567 33.4157 14.1573 33.3493L14.8422 32.8939L17.1552 31.357L20.1512 29.3648C20.2518 29.2984 20.3333 29.2073 20.3903 29.1048C20.4017 29.0859 20.4092 29.0669 20.4187 29.046C20.4605 28.953 20.4832 28.8506 20.4832 28.7443V22.2932C20.4832 22.1452 20.3182 22.056 20.1948 22.1376L17.1552 24.1583L13.8271 26.3707L7.17104 23.5986V16.4017L13.4609 19.022C13.5577 19.0619 13.6602 19.0808 13.7626 19.0771C13.7835 19.0771 13.8063 19.0771 13.8271 19.0733C13.9429 19.06 14.0567 19.0201 14.1573 18.9537L15.0756 18.3428L17.1552 16.9614L18.491 16.0735L19.7319 15.2481L20.1512 14.9692C20.2518 14.9028 20.3333 14.8117 20.3903 14.7092C20.4017 14.6903 20.4092 14.6713 20.4187 14.6504C20.4605 14.5574 20.4832 14.455 20.4832 14.3487V0.702586C20.4832 0.554589 20.3182 0.465411 20.1948 0.546999V0.548897Z" stroke="#F9FAFB" style="stroke:#F9FAFB;stroke:color(display-p3 0.9765 0.9804 0.9843);stroke-opacity:1;" stroke-linecap="round" stroke-linejoin="round"/>
<path d="M13.8291 11.9789V19.022" stroke="#F9FAFB" style="stroke:#F9FAFB;stroke:color(display-p3 0.9765 0.9804 0.9843);stroke-opacity:1;" stroke-linecap="round" stroke-linejoin="round"/>
<path d="M0.607989 13.6694L7.1711 16.4036" stroke="#F9FAFB" style="stroke:#F9FAFB;stroke:color(display-p3 0.9765 0.9804 0.9843);stroke-opacity:1;" stroke-linecap="round" stroke-linejoin="round"/>
<path d="M7.17115 16.4036V9.30734" stroke="#F9FAFB" style="stroke:#F9FAFB;stroke:color(display-p3 0.9765 0.9804 0.9843);stroke-opacity:1;" stroke-linecap="round" stroke-linejoin="round"/>
<path d="M13.8291 26.3726L20.3903 29.1048" stroke="#F9FAFB" style="stroke:#F9FAFB;stroke:color(display-p3 0.9765 0.9804 0.9843);stroke-opacity:1;" stroke-linecap="round" stroke-linejoin="round"/>
<path d="M13.9219 4.81997L20.485 7.55413" stroke="#F9FAFB" style="stroke:#F9FAFB;stroke:color(display-p3 0.9765 0.9804 0.9843);stroke-opacity:1;" stroke-linecap="round" stroke-linejoin="round"/>
<path d="M13.8291 11.9789L20.3903 14.7111" stroke="#F9FAFB" style="stroke:#F9FAFB;stroke:color(display-p3 0.9765 0.9804 0.9843);stroke-opacity:1;" stroke-linecap="round" stroke-linejoin="round"/>
<path d="M13.8271 26.3726V33.4689" stroke="#F9FAFB" style="stroke:#F9FAFB;stroke:color(display-p3 0.9765 0.9804 0.9843);stroke-opacity:1;" stroke-linecap="round" stroke-linejoin="round"/>
<path d="M7.17104 30.7973V23.6005L0.640173 27.9417" stroke="#F9FAFB" style="stroke:#F9FAFB;stroke:color(display-p3 0.9765 0.9804 0.9843);stroke-opacity:1;" stroke-linecap="round" stroke-linejoin="round"/>
</svg>
